<?xml version="1.0" encoding="utf-8"?>
<!-- Generator: Adobe Illustrator 24.1.0, SVG Export Plug-In . SVG Version: 6.00 Build 0)  -->
<svg version="1.0" id="Calque_1" xmlns="http://www.w3.org/2000/svg" xmlns:xlink="http://www.w3.org/1999/xlink" x="0px" y="0px"
	 viewBox="0 0 40 40" style="enable-background:new 0 0 40 40;" xml:space="preserve">
<style type="text/css">
	.st0{fill:#111111;}
</style>
<g>
	<g>
		<polygon class="st0" points="10,12 14,12 14,8 10,8 6,8 6,12 6,16 10,16 		"/>
	</g>
	<g>
		<polygon class="st0" points="6,20 6,16 2,16 2,20 2,24 2,28 6,28 6,24 		"/>
	</g>
	<g>
		<polygon class="st0" points="10,32 10,28 6,28 6,32 6,36 10,36 14,36 14,32 		"/>
	</g>
	<g>
		<polygon class="st0" points="18,36 14,36 14,40 18,40 22,40 26,40 26,36 22,36 		"/>
	</g>
	<g>
		<polygon class="st0" points="30,32 26,32 26,36 30,36 34,36 34,32 34,28 30,28 		"/>
	</g>
	<g>
		<polygon class="st0" points="34,16 34,20 34,24 34,28 38,28 38,24 38,20 38,16 		"/>
	</g>
	<g>
		<polygon class="st0" points="34,8 30,8 26,8 26,12 30,12 30,16 34,16 34,12 		"/>
	</g>
	<g>
		<polygon class="st0" points="14,4 18,4 18,8 18,12 18,16 18,20 18,24 22,24 22,20 22,16 22,12 22,8 22,4 26,4 30,4 32,4 32,0 
			30,0 26,0 22,0 18,0 14,0 10,0 8,0 8,4 10,4 		"/>
	</g>
</g>
</svg>
